Rise of the Planet of the Apes 2011 BDRip XViD-NiTRO
Source: CHD bluray (thanks) 
http://www.imdb.com/title/tt0133152/

General
Format                           : AVI
Format/Info                      : Audio Video Interleave
Format profile                   : OpenDML
File size                        : 1.11 GiB
Duration                         : 1h 44mn
Overall bit rate                 : 1 508 Kbps
Writing application              : Lavf51.12.1

Video
ID                               : 0
Format                           : AVC
Format/Info                      : Advanced Video Codec
Format profile                   : Baseline@L1.3
Format settings, CABAC           : No
Format settings, ReFrames        : 1 frame
Format settings, GOP             : M=1, N=12
Codec ID                         : H264
Duration                         : 1h 44mn
Bit rate                         : 196 Kbps
Width                            : 640 pixels
Height                           : 272 pixels
Display aspect ratio             : 2.35:1
Frame rate                       : 23.976 fps
Color space                      : YUV
Chroma subsampling               : 4:2:0
Bit depth                        : 8 bits
Scan type                        : Progressive
Bits/(Pixel*Frame)               : 0.047
Stream size                      : 147 MiB (13%)

Audio
ID                               : 1
Format                           : MPEG Audio
Codec ID                         : 55
Codec ID/Hint                    : MP3
Duration                         : 1h 44mn
Bit rate                         : 128 Kbps
Channel(s)                       : 2 channels
Sampling rate                    : 44.1 KHz
Compression mode                 : Lossy
Stream size                      : 6.59 MiB (1%)
Alignment                        : Aligned on interleaves
Interleave, duration             : 47 ms (1.12 video frame)




